<svg xmlns="http://www.w3.org/2000/svg" xmlns:xlink="http://www.w3.org/1999/xlink" x="0px" y="0px" width="64px" height="64px" viewBox="0 0 64 64" xml:space="preserve">
<g>
	<path fill="none" stroke="#000000" stroke-width="2" stroke-miterlimit="10" d="M32,1L26,1L26,10L20,12L14,6L6,14L12,20L10,26L1,26L1,38L10,38L12,44L6,50L14,58L20,52L26,54L26,63L32,63L38,63L38,54L44,52L50,58L58,50L52,44L54,38L63,38L63,26L54,26L52,20L58,14L50,6L44,12L38,10L38,1Z" style="stroke-dasharray: 284, 286; stroke-dashoffset: 0;"></path>
	<path fill="none" stroke="#000000" stroke-width="2" stroke-miterlimit="10" d="M26,32A6,6 0,1,1 38,32A6,6 0,1,1 26,32" style="stroke-dasharray: 38, 40; stroke-dashoffset: 0;"></path>
</g>
</svg>